<?xml version="1.0" encoding="UTF-8"?> <svg xmlns="http://www.w3.org/2000/svg" width="60" height="60"><g fill="none" fill-rule="evenodd"><path d="M6 50.711c4.374.234 6.874.115 7.5-.358 5.252-3.968 6.265-10.638 9.95-10.638 6.47 0 7.124 5.535 13.142 5.589 4.011.035 9.555-5.919 16.631-17.864v25.822L51.023 55H8.367l-2.36-1.433L6 50.711zM11.5 15a4.5 4.5 0 1 1 0-9 4.5 4.5 0 0 1 0 9z" fill="#CEDAFA"></path><path d="M13.5 19a6.5 6.5 0 1 1 0-13 6.5 6.5 0 0 1 0 13zm5.5-1l4.82 4.82L19 18zm4.927-13H49.005a4.8 4.8 0 0 1 4.8 4.8v40.4a4.8 4.8 0 0 1-4.8 4.8H10.8A4.8 4.8 0 0 1 6 50.2V23.75m5 17.976c4.576-9.302 8.6-13.953 12.07-13.953 5.207 0 7.32 4.83 12.875 4.935 3.703.07 7.965-5.2 12.785-15.81M17.5 44v6.237M25.5 37v13.21m8-9.293v9.65m8-14.626v14.615" stroke="#252628" stroke-width="2" stroke-linecap="round" stroke-linejoin="round"></path></g></svg> 