<?xml version="1.0" encoding="UTF-8"?> <svg xmlns="http://www.w3.org/2000/svg" width="60" height="60"><g fill="none" fill-rule="evenodd"><circle fill="#FFD767" cx="29" cy="22" r="15"></circle><path d="M36 44v6.335C36 53.661 33.2 55 29 55s-7-1.339-7-4.665V44v5h14v-5zm-1.232 0H23.232c-5.659-2.178-9.335-7.532-9.23-13.44C14.15 22.578 20.778 16.142 29 16c8.222.142 14.851 6.578 14.998 14.56.105 5.908-3.571 11.262-9.23 13.44zM29 5v5-5zM4 27h5-5zm6-16l5 5-5-5zm45 16h-5 5zm-6-16l-5 5 5-5zM28 44V30.288c0-1.262 1-2.542 2.833-2.542 1.663 0 2.834 1.373 2.834 2.752 0 1.38-.786 2.712-2.334 2.712" stroke="#252628" stroke-width="2" stroke-linecap="round" stroke-linejoin="round"></path></g></svg> 