<?xml version="1.0" encoding="UTF-8"?> <svg xmlns="http://www.w3.org/2000/svg" width="60" height="60"><g fill="none" fill-rule="evenodd"><path d="M22.552 14.004l1.12-7.262a1.115 1.115 0 0 1 1.302-.774l5.675 1.35 4.236-4.014c.43-.405 1.1-.405 1.53 0l4.237 4.013 5.677-1.338c.575-.135 1.156.201 1.324.767l1.666 5.593 5.592 1.665c.573.169.911.759.767 1.338l-1.329 5.652 4.014 4.237c.405.43.405 1.1 0 1.53l-4.014 4.236 1.35 5.674c.136.576-.2 1.159-.768 1.327l-6.77 2.528L46.33 33l1.833-7.084-5.059-3.186-2.451-7.388c-5.05.599-7.785.34-8.204-.773l-4.725-3.07-5.17 3.843v-1.338z" fill="#C8FAA4"></path><path d="M11.688 53.03L7.69 54.28a1 1 0 0 1-1.723 1.012l-.644-1.015a1.009 1.009 0 0 1-.018-.027l-1.988-3.132a1.007 1.007 0 0 1-.018-.029l-.644-1.015a1 1 0 0 1 1.585-1.208l17.013-21.59-.282-.446a1 1 0 0 1 1.688-1.072l6.294 9.916 5.632 8.872.018.03.644 1.014a1 1 0 0 1-1.688 1.072l-.252-.396-11.265 3.524a5.519 5.519 0 0 1-1.797 6.8 5.082 5.082 0 0 1-7.22-1.505l-1.338-2.056zm1.982-.62l1.048 1.61a3.082 3.082 0 0 0 4.374.936c1.465-1.054 1.886-3.04 1.018-4.562l-6.44 2.015zm-1.9-1.502a.992.992 0 0 1 .088-.027l8.318-2.603a.992.992 0 0 1 .1-.031l11.922-3.73-4.932-7.771-4.876-7.68L5.386 50.643l1.198 1.886 5.187-1.622zm17.737 4.459a1 1 0 1 1-1.254-1.558l4.572-3.682a1 1 0 0 1 .677-.22l5.865.292a.855.855 0 0 0 .868-.633l1.542-5.67a1 1 0 0 1 .42-.576l4.914-3.2a.858.858 0 0 0 .333-1.022l-2.09-5.486a1 1 0 0 1 0-.712l2.09-5.488a.856.856 0 0 0-.333-1.02l-4.916-3.21a1 1 0 0 1-.418-.577l-1.534-5.667a.856.856 0 0 0-.87-.631l-5.863.292a1 1 0 0 1-.678-.22l-4.572-3.69a.856.856 0 0 0-1.074 0l-4.572 3.69a1 1 0 0 1-.679.22l-5.863-.298a.856.856 0 0 0-.869.63L13.67 22.6a1 1 0 0 1-.418.576l-4.916 3.21a.858.858 0 0 0-.333 1.02l2.092 5.489a1 1 0 0 1 0 .712l-.896 2.35a1 1 0 0 1-1.868-.712l.76-1.994-1.957-5.133a2.858 2.858 0 0 1 1.108-3.406l4.597-3.002 1.435-5.3a2.856 2.856 0 0 1 2.9-2.106l5.482.279 4.275-3.45a2.856 2.856 0 0 1 3.586 0l4.275 3.45 5.483-.273a2.856 2.856 0 0 1 2.9 2.106l1.434 5.3 4.597 3.002a2.856 2.856 0 0 1 1.108 3.407l-1.955 5.132 1.955 5.13a2.859 2.859 0 0 1-1.11 3.41l-4.596 2.992-1.441 5.3a2.854 2.854 0 0 1-2.9 2.109l-5.483-.273-4.276 3.443z" fill="#000" fill-rule="nonzero"></path></g></svg> 